<svg width="20" height="20" viewBox="0 0 20 20" fill="none" xmlns="http://www.w3.org/2000/svg">
<g opacity="0.5">
<mask id="path-1-outside-1" maskUnits="userSpaceOnUse" x="-1" y="-1" width="21" height="21" fill="black">
<rect fill="white" x="-1" y="-1" width="21" height="21"/>
<path fill-rule="evenodd" clip-rule="evenodd" d="M18.1462 18.8533C18.2442 18.9503 18.3722 18.9993 18.5002 18.9993C18.6283 18.9993 18.7563 18.9503 18.8533 18.8533C19.0483 18.6583 19.0483 18.3412 18.8533 18.1462L10.7068 9.99975L18.8533 1.85325C19.0483 1.65825 19.0483 1.34125 18.8533 1.14625C18.6583 0.95125 18.3412 0.95125 18.1462 1.14625L9.99975 9.29275L1.85325 1.14625C1.65825 0.95125 1.34125 0.95125 1.14625 1.14625C0.95125 1.34125 0.95125 1.65825 1.14625 1.85325L9.29275 9.99975L1.14625 18.1462C0.95125 18.3412 0.95125 18.6583 1.14625 18.8533C1.24425 18.9503 1.37225 18.9993 1.50025 18.9993C1.62825 18.9993 1.75625 18.9503 1.85325 18.8533L9.99975 10.7068L18.1462 18.8533Z"/>
</mask>
<path fill-rule="evenodd" clip-rule="evenodd" d="M18.1462 18.8533C18.2442 18.9503 18.3722 18.9993 18.5002 18.9993C18.6283 18.9993 18.7563 18.9503 18.8533 18.8533C19.0483 18.6583 19.0483 18.3412 18.8533 18.1462L10.7068 9.99975L18.8533 1.85325C19.0483 1.65825 19.0483 1.34125 18.8533 1.14625C18.6583 0.95125 18.3412 0.95125 18.1462 1.14625L9.99975 9.29275L1.85325 1.14625C1.65825 0.95125 1.34125 0.95125 1.14625 1.14625C0.95125 1.34125 0.95125 1.65825 1.14625 1.85325L9.29275 9.99975L1.14625 18.1462C0.95125 18.3412 0.95125 18.6583 1.14625 18.8533C1.24425 18.9503 1.37225 18.9993 1.50025 18.9993C1.62825 18.9993 1.75625 18.9503 1.85325 18.8533L9.99975 10.7068L18.1462 18.8533Z" fill="white"/>
<path d="M18.1462 18.8533L17.4391 19.5604L17.4428 19.564L18.1462 18.8533ZM10.7068 9.99975L9.99964 9.29264L9.29254 9.99975L9.99964 10.7069L10.7068 9.99975ZM18.8533 1.85325L19.5604 2.56036V2.56036L18.8533 1.85325ZM18.8533 1.14625L19.5604 0.439144L18.8533 1.14625ZM18.1462 1.14625L18.8534 1.85336V1.85336L18.1462 1.14625ZM9.99975 9.29275L9.29264 9.99986L9.99975 10.707L10.7069 9.99986L9.99975 9.29275ZM1.85325 1.14625L1.14614 1.85336H1.14614L1.85325 1.14625ZM1.14625 1.14625L0.439143 0.439143L0.439143 0.439143L1.14625 1.14625ZM1.14625 1.85325L1.85336 1.14614V1.14614L1.14625 1.85325ZM9.29275 9.99975L9.99986 10.7069L10.707 9.99975L9.99986 9.29264L9.29275 9.99975ZM1.14625 18.1462L1.85336 18.8534H1.85336L1.14625 18.1462ZM1.14625 18.8533L0.439134 19.5604L0.442778 19.564L1.14625 18.8533ZM1.85325 18.8533L1.14614 18.1461L1.14614 18.1461L1.85325 18.8533ZM9.99975 10.7068L10.7069 9.99964L9.99975 9.29254L9.29264 9.99964L9.99975 10.7068ZM18.5002 17.9993C18.6274 17.9993 18.7547 18.0485 18.8497 18.1425L17.4428 19.564C17.7338 19.852 18.1171 19.9993 18.5002 19.9993V17.9993ZM18.1461 18.1461C18.2443 18.048 18.374 17.9993 18.5002 17.9993V19.9993C18.8825 19.9993 19.2682 19.8525 19.5604 19.5604L18.1461 18.1461ZM18.1461 18.8534C17.9506 18.6578 17.9506 18.3417 18.1461 18.1461L19.5604 19.5604C20.1459 18.9748 20.1459 18.0247 19.5604 17.4391L18.1461 18.8534ZM9.99964 10.7069L18.1461 18.8534L19.5604 17.4391L11.4139 9.29264L9.99964 10.7069ZM18.1461 1.14614L9.99964 9.29264L11.4139 10.7069L19.5604 2.56036L18.1461 1.14614ZM18.1461 1.85336C17.9506 1.65783 17.9506 1.34167 18.1461 1.14614L19.5604 2.56036C20.1459 1.97483 20.1459 1.02467 19.5604 0.439144L18.1461 1.85336ZM18.8534 1.85336C18.6578 2.04888 18.3417 2.04888 18.1461 1.85336L19.5604 0.439144C18.9748 -0.146381 18.0247 -0.146381 17.4391 0.439144L18.8534 1.85336ZM10.7069 9.99986L18.8534 1.85336L17.4391 0.439143L9.29264 8.58564L10.7069 9.99986ZM1.14614 1.85336L9.29264 9.99986L10.7069 8.58564L2.56036 0.439143L1.14614 1.85336ZM1.85336 1.85336C1.65783 2.04888 1.34167 2.04888 1.14614 1.85336L2.56036 0.439143C1.97483 -0.146381 1.02467 -0.146381 0.439143 0.439143L1.85336 1.85336ZM1.85336 1.14614C2.04888 1.34167 2.04888 1.65783 1.85336 1.85336L0.439143 0.439143C-0.146381 1.02467 -0.146381 1.97483 0.439143 2.56036L1.85336 1.14614ZM9.99986 9.29264L1.85336 1.14614L0.439143 2.56036L8.58564 10.7069L9.99986 9.29264ZM1.85336 18.8534L9.99986 10.7069L8.58564 9.29264L0.439143 17.4391L1.85336 18.8534ZM1.85336 18.1461C2.04888 18.3417 2.04888 18.6578 1.85336 18.8534L0.439144 17.4391C-0.146381 18.0247 -0.146381 18.9748 0.439144 19.5604L1.85336 18.1461ZM1.50025 17.9993C1.62741 17.9993 1.75469 18.0485 1.84972 18.1425L0.442778 19.564C0.733812 19.852 1.11709 19.9993 1.50025 19.9993V17.9993ZM1.14614 18.1461C1.24431 18.048 1.37402 17.9993 1.50025 17.9993V19.9993C1.88248 19.9993 2.26819 19.8525 2.56036 19.5604L1.14614 18.1461ZM9.29264 9.99964L1.14614 18.1461L2.56036 19.5604L10.7069 11.4139L9.29264 9.99964ZM18.8534 18.1461L10.7069 9.99964L9.29264 11.4139L17.4391 19.5604L18.8534 18.1461Z" fill="white" mask="url(#path-1-outside-1)"/>
</g>
</svg>
