<svg width="48" height="48" viewBox="0 0 48 48" fill="none" xmlns="http://www.w3.org/2000/svg">
<rect x="3" y="3" width="42" height="42" rx="5" fill="#5A1BE0" stroke="white" stroke-width="6"/>
<path d="M32.3333 17.6667H29.6667L27 15H21.6667L19 17.6667H16.3333C15.5973 17.6667 15 18.264 15 19V29.6667C15 30.4027 15.5973 31 16.3333 31H32.3333C33.0693 31 33.6667 30.4027 33.6667 29.6667V19C33.6667 18.264 33.0693 17.6667 32.3333 17.6667ZM24.312 28.3547C22.1067 28.3547 20.312 26.56 20.312 24.3547C20.312 22.1493 22.1067 20.3547 24.312 20.3547C26.5173 20.3547 28.312 22.1493 28.312 24.3547C28.312 26.56 26.5187 28.3547 24.312 28.3547Z" fill="white"/>
</svg>
