<svg width="15" height="27" viewBox="0 0 15 27" fill="none" xmlns="http://www.w3.org/2000/svg">
<g opacity="0.5">
<path fill-rule="evenodd" clip-rule="evenodd" d="M13.7837 14.2379L2.23286 25.7887C1.95119 26.0704 1.49329 26.0704 1.21161 25.7887C0.92994 25.5071 0.92994 25.0492 1.21161 24.7675L12.2569 13.7223L1.21167 2.67708C0.93 2.39541 0.93 1.93751 1.21167 1.65583C1.35179 1.51572 1.53668 1.44494 1.72157 1.44494C1.90647 1.44494 2.09136 1.51572 2.23292 1.65584L13.7887 13.2117C14.0704 13.4933 14.0704 13.9512 13.7887 14.2329C13.7871 14.2346 13.7854 14.2363 13.7837 14.2379Z" fill="white"/>
<path d="M13.7837 14.2379L13.4336 13.8809L13.4301 13.8844L13.7837 14.2379ZM2.23286 25.7887L1.87931 25.4352L1.8793 25.4352L2.23286 25.7887ZM1.21161 24.7675L1.56517 25.1211L1.21161 24.7675ZM12.2569 13.7223L12.6104 14.0758L12.964 13.7223L12.6104 13.3687L12.2569 13.7223ZM1.21167 2.67708L1.56523 2.32353L1.56522 2.32353L1.21167 2.67708ZM1.21167 1.65583L1.56523 2.00939L1.56523 2.00939L1.21167 1.65583ZM2.23292 1.65584L2.58648 1.30228L2.58466 1.30048L2.23292 1.65584ZM13.7887 13.2117L14.1423 12.8581L14.1423 12.8581L13.7887 13.2117ZM13.7887 14.2329L13.4352 13.8794L13.4352 13.8794L13.7887 14.2329ZM13.4301 13.8844L1.87931 25.4352L2.58641 26.1423L14.1372 14.5915L13.4301 13.8844ZM1.8793 25.4352C1.7929 25.5216 1.65158 25.5216 1.56517 25.4352L0.85806 26.1423C1.335 26.6192 2.10948 26.6192 2.58641 26.1423L1.8793 25.4352ZM1.56517 25.4352C1.47876 25.3488 1.47876 25.2075 1.56517 25.1211L0.85806 24.4139C0.381125 24.8909 0.381125 25.6654 0.85806 26.1423L1.56517 25.4352ZM1.56517 25.1211L12.6104 14.0758L11.9033 13.3687L0.85806 24.4139L1.56517 25.1211ZM12.6104 13.3687L1.56523 2.32353L0.858119 3.03063L11.9033 14.0758L12.6104 13.3687ZM1.56522 2.32353C1.47882 2.23712 1.47881 2.0958 1.56523 2.00939L0.858119 1.30228C0.381185 1.77922 0.381183 2.5537 0.85812 3.03063L1.56522 2.32353ZM1.56523 2.00939C1.60776 1.96685 1.66379 1.94494 1.72157 1.94494L1.72157 0.944941C1.40957 0.944941 1.09581 1.06458 0.858116 1.30228L1.56523 2.00939ZM1.72157 1.94494C1.77889 1.94494 1.83614 1.96661 1.88118 2.0112L2.58466 1.30048C2.34658 1.06482 2.03405 0.944941 1.72157 0.944941L1.72157 1.94494ZM1.87937 2.00939L13.4352 13.5652L14.1423 12.8581L2.58647 1.30228L1.87937 2.00939ZM13.4352 13.5652C13.5216 13.6516 13.5216 13.7929 13.4352 13.8794L14.1423 14.5865C14.6192 14.1095 14.6192 13.335 14.1423 12.8581L13.4352 13.5652ZM13.4352 13.8794C13.4346 13.8799 13.4341 13.8804 13.4336 13.8809L14.1337 14.5949C14.1366 14.5921 14.1395 14.5893 14.1423 14.5864L13.4352 13.8794Z" fill="white"/>
</g>
</svg>
