<svg width="16" height="16" viewBox="0 0 16 16" fill="none" xmlns="http://www.w3.org/2000/svg">
<path fill-rule="evenodd" clip-rule="evenodd" d="M11.7456 10.3261L15.7071 14.2931C16.0976 14.6836 16.0971 15.3166 15.7066 15.7071C15.3161 16.0976 14.6831 16.0976 14.2926 15.7071L10.3326 11.7411C9.25707 12.5296 7.93506 13.0001 6.49955 13.0001C2.91002 13.0001 0 10.0901 0 6.50005C0 2.91002 2.91002 0 6.49955 0C10.0896 0 12.9991 2.91002 12.9991 6.50005C12.9991 7.93206 12.5306 9.25207 11.7456 10.3261ZM6.49955 2.00002C4.01453 2.00002 2.00002 4.01453 2.00002 6.50005C2.00002 8.98557 4.01453 11.0001 6.49955 11.0001C8.98507 11.0001 10.9996 8.98557 10.9996 6.50005C10.9996 4.01453 8.98507 2.00002 6.49955 2.00002Z" fill="#A5ACBC"/>
</svg>
