<svg width="20" height="20" viewBox="0 0 20 20" fill="none" xmlns="http://www.w3.org/2000/svg">
<path fill-rule="evenodd" clip-rule="evenodd" d="M14.6822 12.9076L19.6342 17.8664C20.1223 18.3545 20.1217 19.1458 19.6336 19.6339C19.1454 20.122 18.3542 20.122 17.866 19.6339L12.9159 14.6764C11.5715 15.662 9.91898 16.2501 8.12457 16.2501C3.63759 16.2501 0 12.6126 0 8.12506C0 3.63753 3.63759 0 8.12457 0C12.6122 0 16.2491 3.63753 16.2491 8.12506C16.2491 9.91508 15.6635 11.5651 14.6822 12.9076ZM8.12451 2.5C5.01818 2.5 2.5 5.01814 2.5 8.12504C2.5 11.2319 5.01818 13.7501 8.12451 13.7501C11.2315 13.7501 13.7496 11.2319 13.7496 8.12504C13.7496 5.01814 11.2315 2.5 8.12451 2.5Z" fill="white"/>
</svg>
